<?xml version="1.0" encoding="UTF-8"?><svg id="Ebene_2" xmlns="http://www.w3.org/2000/svg" viewBox="0 0 224.24 136.82"><path d="M151.27,11.57s-35.11-3.03-41.73-2.78-11.36,8.47-11.36,8.47c-2.8,3.08-5.18,6.54-7.42,10.04-2.87,4.49-7.22,14.66-13.41,14.49-1.14-.03-7.49-2.93-9.03-3.59-5.37-2.29-10.73-4.8-15.89-7.52-3.95-2.09-7.66-5.2-12.22-5.65-2.48-.24-3.13.11-5.64-.93-1.7-.7-1.68-1.69-3.6-.1-4.79,3.94-8.95,12.65-13.74,17.06-3.95,11.71-9.7,23.71-13.11,35.55-1.67,5.8-2.63,13.11-1.03,18.99.68,2.49,2.01,4.33,3.03,6.63,3.77,8.54,3.74,19.11,15.23,20.7,11.71,1.63,30.84.96,42.23-2.29,10.8-3.08,13.53-6.96,16.65-17.44.96-3.21,1.52-8.14,2.82-10.94.98-2.13,1.98-1.92,3.4-.3s2.52,4.14,4.1,5.76c3.59,3.67,15.14,5.02,20.14,4.73,5.79-.34,11.49-2.88,17.04-3.29,7.3-.54,15.21.41,22.57-.02,3.49-.46,7.5-5.33,10.65-6.6,2.27-.92,3.4,1.03.36,1.08-.53.54,4.74,3.66,5.2,3.93,5.44,3.16,12.9,7.55,18.55,9.99,2.73,1.18,5.73,2.24,8.71,1.58,4.01-.88,6.33-4.46,9.34-6.88,10.08-8.13,20.42-9.08,17.46-25.68-1.06-5.92-2.68-12.79-4.11-18.68-2.3-9.45-3.79-8.53-9.96-14.68-1.63-1.63-4.14-5.7-6.1-6.42-2.55-.94-6.46,2.02-9.14,2.68-3.41.84-5.24-.09-8.48,2.41-4.66,3.59-6.21,18.56-12.33,6.78-3.88-7.47-6.55-18.75-11.9-25.06-1.85-2.18-6.95-3.54-5.85-6.26,2.17-5.36-1.41-5.76-1.41-5.76Z"/></svg>