<?xml version="1.0" encoding="UTF-8"?><svg id="Ebene_1" xmlns="http://www.w3.org/2000/svg" xmlns:xlink="http://www.w3.org/1999/xlink" viewBox="0 0 419.53 297.64"><defs><style>.cls-1,.cls-2,.cls-3,.cls-4,.cls-5,.cls-6,.cls-7,.cls-8,.cls-9,.cls-10,.cls-11,.cls-12,.cls-13,.cls-14,.cls-15,.cls-16,.cls-17,.cls-18,.cls-19,.cls-20,.cls-21,.cls-22,.cls-23,.cls-24,.cls-25{fill:none;}.cls-2{stroke-dasharray:0 1.93;}.cls-2,.cls-3,.cls-4,.cls-5,.cls-6,.cls-7,.cls-8,.cls-9,.cls-10,.cls-11,.cls-13,.cls-14,.cls-15,.cls-16,.cls-17,.cls-18,.cls-19,.cls-20,.cls-21,.cls-22,.cls-23,.cls-24,.cls-25{stroke:#e6007e;}.cls-2,.cls-3,.cls-4,.cls-5,.cls-6,.cls-7,.cls-8,.cls-9,.cls-10,.cls-13,.cls-14,.cls-15,.cls-16,.cls-17,.cls-18,.cls-19,.cls-20,.cls-21,.cls-22,.cls-23,.cls-24,.cls-25{stroke-linecap:round;stroke-linejoin:round;}.cls-26,.cls-27,.cls-28,.cls-29,.cls-30{font-family:neumarktregularv01-Round900, neumarkt-regular-v01;font-size:9px;font-variation-settings:'wght' 900;}.cls-26,.cls-28{fill:#e6007e;}.cls-3{stroke-dasharray:0 1.95;}.cls-31{fill:#fff;}.cls-4{stroke-dasharray:0 1.93;}.cls-5{stroke-dasharray:0 1.98;}.cls-6{stroke-dasharray:0 1.89;}.cls-7{stroke-dasharray:0 1.98;}.cls-8{stroke-dasharray:0 2.02;}.cls-9{stroke-dasharray:0 2.02;}.cls-12{stroke:#009fe3;}.cls-13{stroke-dasharray:0 1.96;}.cls-14{stroke-dasharray:0 1.96;}.cls-27,.cls-29,.cls-30{fill:#009fe3;}.cls-28,.cls-29{letter-spacing:0em;}.cls-15{stroke-dasharray:0 1.97;}.cls-30{letter-spacing:0em;}.cls-16{stroke-dasharray:0 2.23;}.cls-17{stroke-dasharray:0 1.99;}.cls-18{stroke-dasharray:0 1.99;}.cls-19{stroke-dasharray:0 2.01;}.cls-20{stroke-dasharray:0 2.02;}.cls-32{clip-path:url(#clippath);}.cls-21{stroke-dasharray:0 1.99;}.cls-22{stroke-dasharray:0 2.08;}.cls-23{stroke-dasharray:0 2.16;}.cls-24{stroke-dasharray:0 2.05;}.cls-25{stroke-dasharray:0 2.05;}</style><clipPath id="clippath"><rect class="cls-1" x="-.24" y=".82" width="419.53" height="297.64"/></clipPath></defs><text class="cls-29" transform="translate(180.13 284.26)"><tspan x="0" y="0">www.</tspan></text><text class="cls-30" transform="translate(199.25 284.26)"><tspan x="0" y="0">kalei</tspan></text><text class="cls-26" transform="translate(212.1 284.26)"><tspan x="0" y="0">d</tspan></text><text class="cls-27" transform="translate(215.74 284.26)"><tspan x="0" y="0">o</tspan></text><text class="cls-26" transform="translate(219.53 284.26)"><tspan x="0" y="0">s</tspan></text><text class="cls-27" transform="translate(222.8 284.26)"><tspan x="0" y="0">c</tspan></text><text class="cls-26" transform="translate(226.23 284.26)"><tspan x="0" y="0">o</tspan></text><text class="cls-27" transform="translate(230.02 284.26)"><tspan x="0" y="0">p</tspan></text><text class="cls-28" transform="translate(233.68 284.26)"><tspan x="0" y="0">e.</tspan></text><text class="cls-27" transform="translate(240.22 284.26)"><tspan x="0" y="0">d</tspan></text><text class="cls-26" transform="translate(243.87 284.26)"><tspan x="0" y="0">e</tspan></text><g class="cls-32"><path class="cls-31" d="M312.71,17.97c-235.84-24.38-88.44,21.95-88.44,21.95,0,0,14.31,4.79,26.81,9.45l61.63-31.4h0ZM251.08,49.37l-7.98,4.07c40.87,9.38,26.38,2.8,7.98-4.07h0ZM243.1,53.44c-25.71-5.9-67.67-18.12-150.02-40.57C-16.11-16.9,14.44,172.21,14.44,172.21l72.02,1.49c4.66,12.15,9.84-16.74,10.22-15.21.71,2.83,32.6,13.59,36.14,13.59s60.94-16.43,61.65-18.55c.71-2.12,15.05-9.57,15.05-9.57"/><path class="cls-11" d="M312.71,17.97c-235.84-24.38-88.44,21.95-88.44,21.95,0,0,14.31,4.79,26.81,9.45l61.63-31.4h0ZM251.08,49.37l-7.98,4.07c40.87,9.38,26.38,2.8,7.98-4.07h0ZM243.1,53.44c-25.71-5.9-67.67-18.12-150.02-40.57C-16.11-16.9,14.44,172.21,14.44,172.21l72.02,1.49c4.66,12.15,9.84-16.74,10.22-15.21.71,2.83,32.6,13.59,36.14,13.59s60.94-16.43,61.65-18.55c.71-2.12,15.05-9.57,15.05-9.57"/><path class="cls-31" d="M404.62,129.4s14.17,164.31-72.97,164.31c-176.54,0-120.2-166.06-120.2-166.06,0,0,40.23,166.06-98,166.06S21.87,157.01,21.87,157.01"/><path class="cls-12" d="M404.62,129.4s14.17,164.31-72.97,164.31c-176.54,0-120.2-166.06-120.2-166.06,0,0,40.23,166.06-98,166.06S21.87,157.01,21.87,157.01"/></g><line class="cls-17" x1="221.09" y1="167.57" x2="325.4" y2="172.04"/><path class="cls-9" d="M328.41,172.08h25.28"/><path class="cls-2" d="M356.63,172c5.89-.49,10.47-2.91,21.94-.15"/><path class="cls-14" d="M381.4,172.56c9.58,2.36,15.96,3.2,18.28,3.45"/><path class="cls-10" d="M219.1,167.49h0M326.39,172.08h0M354.71,172.08h0M379.5,172.08h0M400.65,176.1h0"/><path class="cls-4" d="M222.22,213.84h18.34"/><path class="cls-6" d="M243.39,213.59c2.63-.58,6.19-2.02,8.11-2.48"/><path class="cls-5" d="M254.41,210.97h14.83"/><path class="cls-24" d="M272.27,210.83c2.66-.31,6.01-.96,15.31.03"/><path class="cls-21" d="M290.58,211.2c10.74,1.28,17.03,2.5,22.73,2.63"/><path class="cls-15" d="M316.28,213.84h20.7"/><path class="cls-25" d="M339.96,213.43c3.02-.89,8.44-2.94,17.07-3.09"/><path class="cls-7" d="M360.03,210.32c10.24-.16,18.67-1.52,24.59-2.12"/><path class="cls-19" d="M387.61,207.93c2.57-.22,4.13-.32,5.02-.36"/><path class="cls-10" d="M220.29,213.84h0M241.53,213.84h0M252.44,210.97h0M270.23,210.97h0M288.6,210.97h0M314.31,213.84h0M337.96,213.84h0M358.05,210.33h0M385.61,208.1h0M393.64,207.53h0"/><line class="cls-22" x1="383.66" y1="254.1" x2="361.92" y2="252.6"/><path class="cls-16" d="M359.88,253.26c-.72-.06-1.78-.21-3.3-.51"/><path class="cls-20" d="M353.5,252.18c-9.65-1.43-35.82-2.78-41.28-3.05"/><path class="cls-23" d="M309.05,249.08h-7.56"/><path class="cls-13" d="M298.46,248.81c-2.98-.52-8.25-1.5-10.66-.31"/><path class="cls-3" d="M285.57,250.37c-2.74,1.99-7.62,3.7-13.89,3.86"/><path class="cls-8" d="M268.68,254.3c-6.71.38-12.58,2.47-16.95,2.77"/><path class="cls-18" d="M248.74,257.12h-12.91"/><path class="cls-10" d="M385.73,254.25h0M360.89,252.52h0M355.49,252.52h0M311.21,249.08h0M300.41,249.08h0M287.02,249.08h0M270.7,254.25h0M250.72,257.12h0M234.83,257.12h0"/><polygon class="cls-31" points="242.61 52.83 245.1 53.37 250.37 52.55 251.48 50.6 251.17 49.94 249.18 49.21 242.61 52.83 242.61 52.83"/><polygon class="cls-31" points="250.69 48.7 253.46 49.72 295.98 35.54 305.91 28.88 315.12 22.22 314.35 18.59 310.98 18.28 301.8 21.65 266.08 35.12 250.69 48.7 250.69 48.7"/><path class="cls-11" d="M313.28,17.4s-2.27,40.25,30.9,43.09c33.17,2.83,56.41,3.4,58.68-8.5,2.27-11.91,8.5-35.15-14.17-32.03-22.68,3.12-53.29-15.59-43.65,4.82,9.64,20.41,29.48,23.53,36.28,19.28,6.8-4.25,7.37-13.04-2.83-12.76"/></svg>