<?xml version="1.0" encoding="UTF-8"?><svg id="Ebene_1" xmlns="http://www.w3.org/2000/svg" xmlns:xlink="http://www.w3.org/1999/xlink" viewBox="0 0 419.53 297.64"><defs><style>.cls-1,.cls-2,.cls-3,.cls-4,.cls-5,.cls-6,.cls-7,.cls-8,.cls-9,.cls-10,.cls-11,.cls-12,.cls-13,.cls-14,.cls-15,.cls-16,.cls-17,.cls-18,.cls-19,.cls-20,.cls-21,.cls-22,.cls-23,.cls-24,.cls-25{fill:none;}.cls-2{stroke-dasharray:0 1.93;}.cls-2,.cls-3,.cls-4,.cls-5,.cls-6,.cls-7,.cls-8,.cls-9,.cls-10,.cls-11,.cls-13,.cls-14,.cls-15,.cls-16,.cls-17,.cls-18,.cls-19,.cls-20,.cls-21,.cls-22,.cls-23,.cls-24,.cls-25{stroke:#e6007e;}.cls-2,.cls-3,.cls-4,.cls-5,.cls-6,.cls-7,.cls-8,.cls-9,.cls-10,.cls-13,.cls-14,.cls-15,.cls-16,.cls-17,.cls-18,.cls-19,.cls-20,.cls-21,.cls-22,.cls-23,.cls-24,.cls-25{stroke-linecap:round;stroke-linejoin:round;}.cls-26,.cls-27,.cls-28,.cls-29,.cls-30{font-family:neumarktregularv01-Round900, neumarkt-regular-v01;font-size:9px;font-variation-settings:'wght' 900;}.cls-26,.cls-28{fill:#e6007e;}.cls-3{stroke-dasharray:0 1.95;}.cls-31{fill:#fff;}.cls-4{stroke-dasharray:0 1.93;}.cls-5{stroke-dasharray:0 1.98;}.cls-6{stroke-dasharray:0 1.89;}.cls-7{stroke-dasharray:0 1.98;}.cls-8{stroke-dasharray:0 2.02;}.cls-9{stroke-dasharray:0 2.02;}.cls-12{stroke:#009fe3;}.cls-13{stroke-dasharray:0 1.96;}.cls-14{stroke-dasharray:0 1.96;}.cls-27,.cls-29,.cls-30{fill:#009fe3;}.cls-28,.cls-29{letter-spacing:0em;}.cls-15{stroke-dasharray:0 1.97;}.cls-30{letter-spacing:0em;}.cls-16{stroke-dasharray:0 2.23;}.cls-17{stroke-dasharray:0 1.99;}.cls-18{stroke-dasharray:0 1.99;}.cls-19{stroke-dasharray:0 2.01;}.cls-20{stroke-dasharray:0 2.02;}.cls-32{clip-path:url(#clippath);}.cls-21{stroke-dasharray:0 1.99;}.cls-22{stroke-dasharray:0 2.08;}.cls-23{stroke-dasharray:0 2.16;}.cls-24{stroke-dasharray:0 2.05;}.cls-25{stroke-dasharray:0 2.05;}</style><clipPath id="clippath"><rect class="cls-1" x="-.24" y=".82" width="419.53" height="297.64"/></clipPath></defs><path fill="#009fe3" d="M181.885 284.260L181.021 284.260L180.013 279.760L180.697 279.760L181.426 283.495Q181.435 283.522 181.453 283.522Q181.471 283.522 181.480 283.495L182.101 279.760L182.965 279.760L183.586 283.585Q183.595 283.612 183.613 283.612Q183.631 283.612 183.640 283.585L184.369 279.760L185.053 279.760L184.045 284.260L183.181 284.260L182.560 280.687Q182.551 280.660 182.533 280.660Q182.515 280.660 182.506 280.687L181.885 284.260M187.285 284.260L186.421 284.260L185.413 279.760L186.097 279.760L186.826 283.495Q186.835 283.522 186.853 283.522Q186.871 283.522 186.880 283.495L187.501 279.760L188.365 279.760L188.986 283.585Q188.995 283.612 189.013 283.612Q189.031 283.612 189.040 283.585L189.769 279.760L190.453 279.760L189.445 284.260L188.581 284.260L187.960 280.687Q187.951 280.660 187.933 280.660Q187.915 280.660 187.906 280.687L187.285 284.260M192.685 284.260L191.821 284.260L190.813 279.760L191.497 279.760L192.226 283.495Q192.235 283.522 192.253 283.522Q192.271 283.522 192.280 283.495L192.901 279.760L193.765 279.760L194.386 283.585Q194.395 283.612 194.413 283.612Q194.431 283.612 194.440 283.585L195.169 279.760L195.853 279.760L194.845 284.260L193.981 284.260L193.360 280.687Q193.351 280.660 193.333 280.660Q193.315 280.660 193.306 280.687"/><path fill="#009fe3" d="M200.222 282.541L200.222 284.260L199.574 284.260L199.574 277.960L200.222 277.960L200.222 281.407Q200.222 281.470 200.258 281.483Q200.294 281.497 200.330 281.452L201.599 279.742L202.346 279.742L201.149 281.281Q201.104 281.335 201.131 281.398L202.472 284.260L201.707 284.260L200.699 282.037Q200.681 281.983 200.645 281.983Q200.609 281.983 200.573 282.028L200.258 282.433Q200.222 282.478 200.222 282.541M203.867 284.440Q203.336 284.440 202.990 284.120Q202.643 283.801 202.553 283.234Q202.445 282.595 202.710 282.159Q202.976 281.722 203.579 281.533Q204.020 281.398 204.407 281.362Q204.686 281.326 204.835 281.250Q204.983 281.173 205.217 280.903L205.217 283.450L205.217 283.504Q205.217 283.648 205.181 283.720L205.181 283.711Q205.028 284.071 204.691 284.255Q204.353 284.440 203.867 284.440M203.867 284.260Q204.668 284.260 204.938 283.639Q204.947 283.621 204.947 283.450L204.947 281.425Q204.785 281.479 204.326 281.551L204.020 281.605Q203.768 281.668 203.660 281.704Q203.048 281.893 202.900 282.334Q202.751 282.775 202.823 283.207Q202.877 283.585 203.111 283.923Q203.345 284.260 203.867 284.260M203.912 283.378Q204.317 283.414 204.497 283.229Q204.677 283.045 204.677 282.577L204.677 282.253Q204.452 282.316 204.263 282.325Q204.011 282.343 203.863 282.505Q203.714 282.667 203.714 282.910Q203.714 283.063 203.782 283.216Q203.849 283.369 203.912 283.378M203.894 283.558Q203.669 283.540 203.556 283.328Q203.444 283.117 203.444 282.910Q203.444 282.676 203.624 282.433Q203.804 282.190 204.236 282.145Q204.488 282.118 204.673 282.055Q204.857 281.992 204.947 281.920L204.947 282.577Q204.947 283.639 203.894 283.558M205.415 284.440Q205.109 284.440 204.893 284.296Q204.677 284.152 204.677 283.936Q204.677 283.720 204.893 283.576Q205.109 283.432 205.415 283.432Q205.721 283.432 205.937 283.576Q206.153 283.720 206.153 283.936Q206.153 284.152 205.937 284.296Q205.721 284.440 205.415 284.440M205.415 284.260Q205.613 284.260 205.748 284.166Q205.883 284.071 205.883 283.936Q205.883 283.801 205.748 283.707Q205.613 283.612 205.415 283.612Q205.217 283.612 205.082 283.707Q204.947 283.801 204.947 283.936Q204.947 284.071 205.082 284.166Q205.217 284.260 205.415 284.260M205.271 283.792Q204.965 283.792 204.821 283.490Q204.677 283.189 204.677 282.694L204.677 281.821Q204.677 281.326 204.821 281.024Q204.965 280.723 205.271 280.723Q205.577 280.723 205.721 281.024Q205.865 281.326 205.865 281.821L205.865 282.694Q205.865 283.198 205.726 283.495Q205.586 283.792 205.271 283.792M205.271 283.612Q205.415 283.612 205.505 283.351Q205.595 283.090 205.595 282.694L205.595 281.821Q205.595 281.425 205.501 281.164Q205.406 280.903 205.271 280.903Q205.136 280.903 205.042 281.164Q204.947 281.425 204.947 281.821L204.947 282.694Q204.947 283.090 205.042 283.351Q205.136 283.612 205.271 283.612M203.264 281.128Q203.408 281.128 203.494 281.038Q203.579 280.948 203.696 280.732Q203.885 280.390 204.335 280.390Q204.713 280.390 204.866 280.651Q204.938 280.777 205.019 280.840Q205.100 280.903 205.217 280.903L205.271 280.903Q205.370 280.903 205.401 280.651Q205.433 280.399 205.303 280.138Q205.172 279.877 204.830 279.778Q204.596 279.715 204.236 279.715Q203.624 279.715 203.264 280.120Q203.093 280.327 203.061 280.561Q203.030 280.795 203.097 280.962Q203.165 281.128 203.264 281.128M203.264 281.308Q202.994 281.308 202.873 281.092Q202.751 280.876 202.800 280.565Q202.850 280.255 203.057 280.003Q203.255 279.778 203.566 279.656Q203.876 279.535 204.236 279.535Q204.641 279.535 204.902 279.607Q205.280 279.715 205.510 280.079Q205.739 280.444 205.680 280.763Q205.622 281.083 205.271 281.083L205.217 281.083Q204.839 281.083 204.632 280.741Q204.569 280.642 204.511 280.606Q204.452 280.570 204.335 280.570Q204.191 280.570 204.101 280.624Q204.011 280.678 203.930 280.822Q203.786 281.083 203.642 281.195Q203.498 281.308 203.264 281.308M207.098 277.960L207.098 284.260L206.450 284.260L206.450 277.960L207.098 277.960M209.258 284.305Q208.565 284.305 208.232 283.882Q207.899 283.459 207.823 282.959Q207.746 282.460 207.746 281.902L207.746 281.839Q207.746 281.470 207.890 280.971Q208.034 280.471 208.372 280.093Q208.709 279.715 209.240 279.715Q210.185 279.715 210.464 280.512Q210.743 281.308 210.743 282.316L208.493 282.316Q208.403 282.316 208.403 282.406Q208.430 282.874 208.637 283.216Q208.844 283.558 209.222 283.558Q209.564 283.558 209.789 283.378Q209.834 283.297 209.915 283.113Q209.996 282.928 210.023 282.847L210.374 282.847L210.707 282.847Q210.554 283.459 210.185 283.882Q209.816 284.305 209.258 284.305M208.511 281.578L209.978 281.578Q210.023 281.578 210.046 281.551Q210.068 281.524 210.059 281.488Q210.023 281.128 209.807 280.791Q209.591 280.453 209.258 280.453Q208.916 280.453 208.691 280.791Q208.466 281.128 208.430 281.488Q208.421 281.524 208.444 281.551Q208.466 281.578 208.511 281.578M211.958 278.068L211.958 279.022L211.310 279.022L211.310 278.068L211.958 278.068M211.958 279.760L211.958 284.260L211.310 284.260L211.310 279.760"/><path fill="#e6007e" d="M212.424 282.109Q212.424 281.011 212.784 280.363Q213.144 279.715 213.756 279.715Q214.116 279.715 214.332 279.823Q214.548 279.931 214.719 280.093Q214.791 280.165 214.818 280.165Q214.845 280.165 214.854 280.048Q214.863 279.931 214.863 279.715L214.890 277.960L215.538 277.960L215.538 284.260L214.890 284.260L214.890 283.972Q214.890 283.873 214.845 283.864Q214.800 283.855 214.737 283.936Q214.620 284.089 214.404 284.197Q214.188 284.305 213.882 284.305Q213.405 284.305 213.076 283.999Q212.748 283.693 212.586 283.193Q212.424 282.694 212.424 282.109M213.108 282.118Q213.117 282.622 213.320 283.108Q213.522 283.594 214.008 283.594Q214.737 283.594 214.872 282.253Q214.917 281.767 214.822 281.353Q214.728 280.939 214.525 280.696Q214.323 280.453 214.053 280.453Q213.522 280.453 213.306 280.921Q213.090 281.389 213.108 282.118"/><path fill="#009fe3" d="M217.621 284.332Q217.126 284.332 216.757 284.026Q216.388 283.720 216.186 283.189Q215.983 282.658 215.983 282.010Q215.983 281.353 216.186 280.827Q216.388 280.300 216.757 279.994Q217.126 279.688 217.621 279.688Q218.386 279.688 218.814 280.340Q219.241 280.993 219.241 282.010Q219.241 283.018 218.814 283.675Q218.386 284.332 217.621 284.332M217.630 283.621Q218.089 283.621 218.355 283.157Q218.620 282.694 218.620 282.010Q218.620 281.326 218.355 280.858Q218.089 280.390 217.630 280.390Q217.162 280.390 216.888 280.863Q216.613 281.335 216.613 282.010Q216.613 282.694 216.888 283.157Q217.162 283.621 217.630 283.621"/><path fill="#e6007e" d="M222.383 280.993L221.735 280.993Q221.735 280.714 221.578 280.584Q221.420 280.453 221.159 280.453Q220.862 280.453 220.682 280.556Q220.502 280.660 220.502 280.876Q220.502 281.110 220.704 281.250Q220.907 281.389 221.357 281.578Q221.393 281.596 221.429 281.609Q221.465 281.623 221.501 281.641Q222.041 281.866 222.280 282.163Q222.518 282.460 222.518 282.892Q222.518 283.513 222.194 283.909Q221.870 284.305 221.267 284.305Q220.421 284.305 220.097 283.819Q219.773 283.333 219.773 282.766L220.421 282.766Q220.421 283.153 220.646 283.360Q220.871 283.567 221.240 283.567Q221.519 283.567 221.677 283.400Q221.834 283.234 221.834 283.018Q221.834 282.748 221.618 282.586Q221.402 282.424 220.961 282.226Q220.448 282.001 220.142 281.713Q219.836 281.425 219.836 280.948Q219.836 280.408 220.165 280.061Q220.493 279.715 221.150 279.715Q221.816 279.715 222.100 280.111Q222.383 280.507 222.383 280.993"/><path fill="#009fe3" d="M223.772 281.902Q223.772 282.685 223.997 283.121Q224.222 283.558 224.690 283.558Q225.041 283.558 225.185 283.356Q225.329 283.153 225.329 282.847L226.004 282.847Q226.004 283.045 225.892 283.387Q225.779 283.729 225.478 284.012Q225.176 284.296 224.663 284.296Q223.961 284.296 223.624 283.864Q223.286 283.432 223.205 282.928Q223.124 282.424 223.124 281.875L223.124 281.839Q223.124 281.470 223.268 280.971Q223.412 280.471 223.750 280.093Q224.087 279.715 224.618 279.715Q225.068 279.715 225.388 279.935Q225.707 280.156 225.865 280.507Q226.022 280.858 226.022 281.254L225.392 281.254Q225.392 280.930 225.212 280.692Q225.032 280.453 224.636 280.453Q224.285 280.453 224.092 280.750Q223.898 281.047 223.835 281.385Q223.772 281.722 223.772 281.902"/><path fill="#e6007e" d="M228.111 284.332Q227.616 284.332 227.247 284.026Q226.878 283.720 226.675 283.189Q226.473 282.658 226.473 282.010Q226.473 281.353 226.675 280.827Q226.878 280.300 227.247 279.994Q227.616 279.688 228.111 279.688Q228.876 279.688 229.303 280.340Q229.731 280.993 229.731 282.010Q229.731 283.018 229.303 283.675Q228.876 284.332 228.111 284.332M228.120 283.621Q228.579 283.621 228.844 283.157Q229.110 282.694 229.110 282.010Q229.110 281.326 228.844 280.858Q228.579 280.390 228.120 280.390Q227.652 280.390 227.377 280.863Q227.103 281.335 227.103 282.010Q227.103 282.694 227.377 283.157Q227.652 283.621 228.120 283.621"/><path fill="#009fe3" d="M233.467 281.839Q233.467 282.883 233.134 283.594Q232.801 284.305 232.126 284.305Q231.730 284.305 231.496 284.138Q231.262 283.972 231.100 283.756Q231.046 283.684 231.024 283.675Q231.001 283.666 230.996 283.747Q230.992 283.828 230.992 283.990L230.992 286.060L230.344 286.060L230.344 279.760L230.992 279.760L230.992 280.048Q230.992 280.147 231.037 280.156Q231.082 280.165 231.145 280.084Q231.424 279.715 231.973 279.715Q232.558 279.715 232.891 280.089Q233.224 280.462 233.346 280.943Q233.467 281.425 233.467 281.839M232.819 281.902Q232.819 281.389 232.617 280.907Q232.414 280.426 231.874 280.426Q231.397 280.426 231.204 280.853Q231.010 281.281 231.010 281.857Q231.010 282.658 231.244 283.121Q231.478 283.585 231.892 283.585Q232.369 283.585 232.594 283.139Q232.819 282.694 232.819 281.902"/><path fill="#e6007e" d="M235.516 284.305Q234.823 284.305 234.490 283.882Q234.157 283.459 234.081 282.959Q234.004 282.460 234.004 281.902L234.004 281.839Q234.004 281.470 234.148 280.971Q234.292 280.471 234.630 280.093Q234.967 279.715 235.498 279.715Q236.443 279.715 236.722 280.512Q237.001 281.308 237.001 282.316L234.751 282.316Q234.661 282.316 234.661 282.406Q234.688 282.874 234.895 283.216Q235.102 283.558 235.480 283.558Q235.822 283.558 236.047 283.378Q236.092 283.297 236.173 283.113Q236.254 282.928 236.281 282.847L236.632 282.847L236.965 282.847Q236.812 283.459 236.443 283.882Q236.074 284.305 235.516 284.305M234.769 281.578L236.236 281.578Q236.281 281.578 236.304 281.551Q236.326 281.524 236.317 281.488Q236.281 281.128 236.065 280.791Q235.849 280.453 235.516 280.453Q235.174 280.453 234.949 280.791Q234.724 281.128 234.688 281.488Q234.679 281.524 234.702 281.551Q234.724 281.578 234.769 281.578"/><path fill="#009fe3" d="M240.544 282.109Q240.544 281.011 240.904 280.363Q241.264 279.715 241.876 279.715Q242.236 279.715 242.452 279.823Q242.668 279.931 242.839 280.093Q242.911 280.165 242.938 280.165Q242.965 280.165 242.974 280.048Q242.983 279.931 242.983 279.715L243.010 277.960L243.658 277.960L243.658 284.260L243.010 284.260L243.010 283.972Q243.010 283.873 242.965 283.864Q242.920 283.855 242.857 283.936Q242.740 284.089 242.524 284.197Q242.308 284.305 242.002 284.305Q241.525 284.305 241.196 283.999Q240.868 283.693 240.706 283.193Q240.544 282.694 240.544 282.109M241.228 282.118Q241.237 282.622 241.440 283.108Q241.642 283.594 242.128 283.594Q242.857 283.594 242.992 282.253Q243.037 281.767 242.942 281.353Q242.848 280.939 242.645 280.696Q242.443 280.453 242.173 280.453Q241.642 280.453 241.426 280.921Q241.210 281.389 241.228 282.118"/><path fill="#e6007e" d="M245.706 284.305Q245.013 284.305 244.680 283.882Q244.347 283.459 244.270 282.959Q244.194 282.460 244.194 281.902L244.194 281.839Q244.194 281.470 244.338 280.971Q244.482 280.471 244.820 280.093Q245.157 279.715 245.688 279.715Q246.633 279.715 246.912 280.512Q247.191 281.308 247.191 282.316L244.941 282.316Q244.851 282.316 244.851 282.406Q244.878 282.874 245.085 283.216Q245.292 283.558 245.670 283.558Q246.012 283.558 246.237 283.378Q246.282 283.297 246.363 283.113Q246.444 282.928 246.471 282.847L246.822 282.847L247.155 282.847Q247.002 283.459 246.633 283.882Q246.264 284.305 245.706 284.305M244.959 281.578L246.426 281.578Q246.471 281.578 246.494 281.551Q246.516 281.524 246.507 281.488Q246.471 281.128 246.255 280.791Q246.039 280.453 245.706 280.453Q245.364 280.453 245.139 280.791Q244.914 281.128 244.878 281.488Q244.869 281.524 244.892 281.551Q244.914 281.578 244.959 281.578"/><g class="cls-32"><path class="cls-31" d="M312.71,17.97c-235.84-24.38-88.44,21.95-88.44,21.95,0,0,14.31,4.79,26.81,9.45l61.63-31.4h0ZM251.08,49.37l-7.98,4.07c40.87,9.38,26.38,2.8,7.98-4.07h0ZM243.1,53.44c-25.71-5.9-67.67-18.12-150.02-40.57C-16.11-16.9,14.44,172.21,14.44,172.21l72.02,1.49c4.66,12.15,9.84-16.74,10.22-15.21.71,2.83,32.6,13.59,36.14,13.59s60.94-16.43,61.65-18.55c.71-2.12,15.05-9.57,15.05-9.57"/><path class="cls-11" d="M312.71,17.97c-235.84-24.38-88.44,21.95-88.44,21.95,0,0,14.31,4.79,26.81,9.45l61.63-31.4h0ZM251.08,49.37l-7.98,4.07c40.87,9.38,26.38,2.8,7.98-4.07h0ZM243.1,53.44c-25.71-5.9-67.67-18.12-150.02-40.57C-16.11-16.9,14.44,172.21,14.44,172.21l72.02,1.49c4.66,12.15,9.84-16.74,10.22-15.21.71,2.83,32.6,13.59,36.14,13.59s60.94-16.43,61.65-18.55c.71-2.12,15.05-9.57,15.05-9.57"/><path class="cls-31" d="M404.62,129.4s14.17,164.31-72.97,164.31c-176.54,0-120.2-166.06-120.2-166.06,0,0,40.23,166.06-98,166.06S21.87,157.01,21.87,157.01"/><path class="cls-12" d="M404.62,129.4s14.17,164.31-72.97,164.31c-176.54,0-120.2-166.06-120.2-166.06,0,0,40.23,166.06-98,166.06S21.87,157.01,21.87,157.01"/></g><line class="cls-17" x1="221.09" y1="167.57" x2="325.4" y2="172.04"/><path class="cls-9" d="M328.41,172.08h25.28"/><path class="cls-2" d="M356.63,172c5.89-.49,10.47-2.91,21.94-.15"/><path class="cls-14" d="M381.4,172.56c9.58,2.36,15.96,3.2,18.28,3.45"/><path class="cls-10" d="M219.1,167.49h0M326.39,172.08h0M354.71,172.08h0M379.5,172.08h0M400.65,176.1h0"/><path class="cls-4" d="M222.22,213.84h18.34"/><path class="cls-6" d="M243.39,213.59c2.63-.58,6.19-2.02,8.11-2.48"/><path class="cls-5" d="M254.41,210.97h14.83"/><path class="cls-24" d="M272.27,210.83c2.66-.31,6.01-.96,15.31.03"/><path class="cls-21" d="M290.58,211.2c10.74,1.28,17.03,2.5,22.73,2.63"/><path class="cls-15" d="M316.28,213.84h20.7"/><path class="cls-25" d="M339.96,213.43c3.02-.89,8.44-2.94,17.07-3.09"/><path class="cls-7" d="M360.03,210.32c10.24-.16,18.67-1.52,24.59-2.12"/><path class="cls-19" d="M387.61,207.93c2.57-.22,4.13-.32,5.02-.36"/><path class="cls-10" d="M220.29,213.84h0M241.53,213.84h0M252.44,210.97h0M270.23,210.97h0M288.6,210.97h0M314.31,213.84h0M337.96,213.84h0M358.05,210.33h0M385.61,208.1h0M393.64,207.53h0"/><line class="cls-22" x1="383.66" y1="254.1" x2="361.92" y2="252.6"/><path class="cls-16" d="M359.88,253.26c-.72-.06-1.78-.21-3.3-.51"/><path class="cls-20" d="M353.5,252.18c-9.65-1.43-35.82-2.78-41.28-3.05"/><path class="cls-23" d="M309.05,249.08h-7.56"/><path class="cls-13" d="M298.46,248.81c-2.98-.52-8.25-1.5-10.66-.31"/><path class="cls-3" d="M285.57,250.37c-2.74,1.99-7.62,3.7-13.89,3.86"/><path class="cls-8" d="M268.68,254.3c-6.71.38-12.58,2.47-16.95,2.77"/><path class="cls-18" d="M248.74,257.12h-12.91"/><path class="cls-10" d="M385.73,254.25h0M360.89,252.52h0M355.49,252.52h0M311.21,249.08h0M300.41,249.08h0M287.02,249.08h0M270.7,254.25h0M250.72,257.12h0M234.83,257.12h0"/><polygon class="cls-31" points="242.61 52.83 245.1 53.37 250.37 52.55 251.48 50.6 251.17 49.94 249.18 49.21 242.61 52.83 242.61 52.83"/><polygon class="cls-31" points="250.69 48.7 253.46 49.72 295.98 35.54 305.91 28.88 315.12 22.22 314.35 18.59 310.98 18.28 301.8 21.65 266.08 35.12 250.69 48.7 250.69 48.7"/><path class="cls-11" d="M313.28,17.4s-2.27,40.25,30.9,43.09c33.17,2.83,56.41,3.4,58.68-8.5,2.27-11.91,8.5-35.15-14.17-32.03-22.68,3.12-53.29-15.59-43.65,4.82,9.64,20.41,29.48,23.53,36.28,19.28,6.8-4.25,7.37-13.04-2.83-12.76"/></svg>