<?xml version="1.0" encoding="UTF-8"?><svg id="Ebene_1" xmlns="http://www.w3.org/2000/svg" xmlns:xlink="http://www.w3.org/1999/xlink" viewBox="0 0 2018.24 1580.52"><defs><style>.cls-1,.cls-2,.cls-3,.cls-4,.cls-5,.cls-6,.cls-7,.cls-8,.cls-9,.cls-10,.cls-11,.cls-12,.cls-13,.cls-14,.cls-15,.cls-16,.cls-17,.cls-18,.cls-19,.cls-20,.cls-21,.cls-22,.cls-23{fill:none;}.cls-2{stroke-dasharray:0 6.56;}.cls-2,.cls-3,.cls-4,.cls-5,.cls-6,.cls-7,.cls-8,.cls-9,.cls-10,.cls-11,.cls-12,.cls-13,.cls-14,.cls-16,.cls-17,.cls-18,.cls-19,.cls-20,.cls-21,.cls-22,.cls-23{stroke:#e6007e;stroke-linecap:round;stroke-linejoin:round;}.cls-2,.cls-3,.cls-4,.cls-5,.cls-8,.cls-9,.cls-10,.cls-12,.cls-13,.cls-14,.cls-17,.cls-18,.cls-19,.cls-23{stroke-width:5px;}.cls-3{stroke-dasharray:0 6.53;}.cls-4{stroke-dasharray:0 7.09;}.cls-5{stroke-dasharray:0 5.69;}.cls-6{stroke-dasharray:0 6.95;}.cls-6,.cls-7,.cls-11,.cls-16,.cls-20,.cls-21,.cls-22{stroke-width:2px;}.cls-8{stroke-dasharray:0 5.49;}.cls-9{stroke-dasharray:0 6.98;}.cls-10{stroke-dasharray:0 5.83;}.cls-11{stroke-dasharray:0 5.5;}.cls-24{clip-path:url(#clippath-1);}.cls-25{clip-path:url(#clippath-3);}.cls-26{clip-path:url(#clippath-2);}.cls-12{stroke-dasharray:0 6.63;}.cls-27{letter-spacing:0em;}.cls-27,.cls-28,.cls-29,.cls-30{font-family:neumarktregularv01-Round900, neumarkt-regular-v01;font-size:37.51px;font-variation-settings:'wght' 900;}.cls-27,.cls-31,.cls-30{fill:#e6007e;}.cls-32{fill:#fff;}.cls-14{stroke-dasharray:0 5.91;}.cls-15{stroke:#009fe3;}.cls-16{stroke-dasharray:0 6.23;}.cls-28{letter-spacing:0em;}.cls-28,.cls-29,.cls-33{fill:#009fe3;}.cls-17{stroke-dasharray:0 5.71;}.cls-18{stroke-dasharray:0 6.39;}.cls-19{stroke-dasharray:0 5.84;}.cls-20{stroke-dasharray:0 6.32;}.cls-34{clip-path:url(#clippath);}.cls-21{stroke-dasharray:0 5.69;}.cls-22{stroke-dasharray:0 8.72;}.cls-23{stroke-dasharray:0 5.99;}</style><clipPath id="clippath"><rect class="cls-1" x="103.37" y="64.98" width="1748.47" height="1240.47"/></clipPath><clipPath id="clippath-1"><rect class="cls-1" x="103.37" y="64.98" width="1748.47" height="1240.47"/></clipPath><clipPath id="clippath-2"><rect class="cls-1" x="103.37" y="64.98" width="1748.47" height="1240.47"/></clipPath><clipPath id="clippath-3"><rect class="cls-1" x="103.37" y="64.98" width="1748.47" height="1240.47"/></clipPath></defs><g class="cls-34"><polygon class="cls-31" points="0 0 0 1580.52 977.61 1580.52 972.88 985.88 1299.54 64.98 0 0 0 0"/></g><text class="cls-28" style="fill:#ffffff" transform="translate(837.34 1246.29)"><tspan x="0" y="0">www.</tspan></text><text class="cls-28" style="fill:#ffffff" transform="translate(917.01 1246.29)"><tspan x="0" y="0">kalei</tspan></text><text class="cls-30" transform="translate(970.58 1246.29)"><tspan x="0" y="0">d</tspan></text><text class="cls-29" transform="translate(985.78 1246.29)"><tspan x="0" y="0">o</tspan></text><text class="cls-30" transform="translate(1001.57 1246.29)"><tspan x="0" y="0">s</tspan></text><text class="cls-29" transform="translate(1015.21 1246.29)"><tspan x="0" y="0">c</tspan></text><text class="cls-30" transform="translate(1029.51 1246.29)"><tspan x="0" y="0">o</tspan></text><text class="cls-29" transform="translate(1045.3 1246.29)"><tspan x="0" y="0">p</tspan></text><text class="cls-27" transform="translate(1060.54 1246.29)"><tspan x="0" y="0">e.</tspan></text><text class="cls-29" transform="translate(1087.86 1246.29)"><tspan x="0" y="0">d</tspan></text><text class="cls-30" transform="translate(1103.03 1246.29)"><tspan x="0" y="0">e</tspan></text><g class="cls-24"><path class="cls-32" d="M1407.64,115.78c-982.92-101.6-368.6,91.5-368.6,91.5,0,0,59.64,19.96,111.74,39.38l256.85-130.88h0ZM1150.78,246.65l-33.25,16.95c170.33,39.09,109.96,11.65,33.25-16.95h0ZM1051.71,297.14l65.82-33.54c-107.17-24.6-305.65-75.53-648.88-169.09C13.59-29.53,105.46,779.3,105.46,779.3l335.6-171.01c19.42,50.64,41,107.43,42.6,113.84,2.95,11.82,135.86,56.64,150.63,56.64s277.63-68.45,280.58-77.32c2.95-8.86,128.9-78.87,128.9-78.87l79.59,10.94,88.31-112.23-33.94-135.86s-82.7-41.35-85.65-50.21c-1.74-5.22-23.09-23.73-40.37-38.08h0Z"/><path class="cls-32" d="M1849.76,600.86s0,684.78-363.2,684.78c-735.78,0-500.95-692.07-500.95-692.07,0,0,144.02,692.07-432.08,692.07S53.75,596.61,53.75,596.61"/><path class="cls-15" d="M1849.76,600.86s0,684.78-363.2,684.78c-735.78,0-500.95-692.07-500.95-692.07,0,0,144.02,692.07-432.08,692.07S53.75,596.61,53.75,596.61"/></g><line class="cls-14" x1="1042.3" y1="747.01" x2="1596.08" y2="769.16"/><g class="cls-26"><path class="cls-16" d="M1634.37,769.65h116.93"/><path class="cls-11" d="M1787.14,767.84c26.26-3.75,51.53-11.17,102.45-.69"/><path class="cls-7" d="M1017.69,746.02h0M1608.39,769.65h0M1764.29,769.65h0M1900.79,769.65h0M2017.24,790.32h0"/></g><path class="cls-2" d="M1061.05,948.07h68.3"/><path class="cls-9" d="M1171.22,941.37c4.82-1.59,9.56-3.23,13.8-4.6"/><path class="cls-8" d="M1222.01,933.3h57.23"/><path class="cls-5" d="M1314.25,931.04c11.97-1.19,28.97-1.86,59.15,1.03"/><path class="cls-18" d="M1411.63,936.5c40.93,5.21,68.3,9.86,92.52,11.19"/><path class="cls-19" d="M1541.81,948.07h85.21"/><g class="cls-25"><path class="cls-20" d="M1664.61,941.33c15.08-4.46,36.25-9.73,64.79-11.02"/><path class="cls-21" d="M1766.28,929.59c42.94-1.53,79.07-6.81,106.25-9.84"/><path class="cls-7" d="M1033.72,948.07h0M1143,948.07h0M1199.12,933.3h0M1290.68,933.3h0M1385.19,933.3h0M1517.46,948.07h0M1639.19,948.07h0M1742.56,930.02h0M1884.33,918.54h0M1925.68,915.58h0"/></g><line class="cls-3" x1="1716.66" y1="1141.23" x2="1621.55" y2="1135.03"/><path class="cls-22" d="M1578.43,1134.14c7.56,1.52,13.41,2.51,17.9,3.12"/><path class="cls-10" d="M1554.39,1130.74c-56.31-6.28-168.94-11.98-206.01-13.75"/><path class="cls-4" d="M1306.71,1116.42h-14.77"/><path class="cls-23" d="M1252.47,1112.78c-12.48-1.81-26.94-3.26-37.3-1.4"/><path class="cls-17" d="M1184.32,1129.61c-14.25,6.61-33.98,11.76-57.69,13.07"/><path class="cls-12" d="M1087.19,1144.74c-25.94,3.1-49.08,9.51-67.98,12"/><path class="cls-6" d="M976.48,1157.77h-43.46"/><path class="cls-13" d="M1743.83,1143h0M1607.97,1134.14h0M1578.43,1134.14h0M1336.25,1116.42h0M1277.17,1116.42h0M1203.97,1116.42h0M1114.73,1143h0M1005.45,1157.77h0M918.54,1157.77h0"/><path class="cls-33" d="M1849.76,600.86h-.04c0,1.24,0,2.46,0,3.7.03-2.37.03-3.7.03-3.7h0ZM1849.72,600.86c-.58-90.13-13.78-198.87-60.69-292.45-4.39,4.58-9.75,8.55-16.35,11.76-36.71,5.24-72.83,1.88-108.38-10.1-47.67-14.14-82.64-43.18-104.89-87.1-13.89-26.64-12.62-51.7,3.82-75.19,7.14-8.56,15-16.21,23.51-23.07-51.43-19.18-112.52-30.18-185.07-30.18-259.79,0-373.11,140.74-419.26,295.28,21.64,70.29,25.36,143.44,21.48,207.5l845.82,3.57h0ZM1620.34,138.98c-.42-.21-.87-.4-1.3-.6M984.43,597.21l-30.78-.13c-.45,43.57,2.08,82.91,5.26,114.34,8.88-59.01,21.66-101.98,25.52-114.21h0ZM968.89,782.94c-1.72-9.05-6.28-34.83-9.98-71.52-3.29,21.88-6.04,45.92-7.59,71.45l17.58.08h0ZM969.61,786.58s.44-1.32,1.18-3.64h-1.89c.44,2.32.71,3.64.71,3.64h0ZM970.78,782.94l30.77.13c.45-43.57-2.08-82.91-5.26-114.33-8.87,59.01-21.65,101.97-25.52,114.2h0ZM984.43,597.21h1.88c-.44-2.32-.71-3.63-.71-3.63,0,0-.44,1.31-1.18,3.63h0ZM986.32,597.21c1.72,9.05,6.28,34.83,9.98,71.53,3.29-21.88,6.05-45.93,7.59-71.45l-17.58-.08h0ZM1001.56,783.07l-28.76,207.29c20.97-70.22,28.1-143.27,28.76-207.29h0ZM972.8,990.36l-21.48-207.5c-3.88,64.07-.17,137.21,21.48,207.5h0ZM953.66,597.08l28.76-207.29c-20.97,70.22-28.1,143.28-28.76,207.29h0Z"/><path class="cls-31" d="M1788.9,308.22c9.97-10.39,14.41-24.22,13.03-41.67,3.71-32.22-4.91-60.76-25.85-85.62-22.03-24.28-48.7-40.88-80-49.8-9.54-1.74-19.04-2.23-28.53-1.55,5.77,3.64,11.47,7.39,17.07,11.3,7.44,5.83,13.13,11.88,19.06,19.22l-83.47-21.31M1618.91,138.19c9.52-16.95,22.25-7.24,37.56-7.31,3.69-.63,7.39-1.04,11.09-1.3-6.39-4.03-12.88-7.92-19.49-11.61-10.42-10.48-22.53-13.89-36.35-10.21-8.96,4.85-17.3,10.47-25.1,16.75"/></svg>